<svg id="Capa_1" enable-background="new 0 0 511.756 511.756" height="512" viewBox="0 0 511.756 511.756" width="512" xmlns="http://www.w3.org/2000/svg"><g><path d="m120.378 0c-24.813 0-45 20.187-45 45v25.071h-25.545v30h25.544v40.071h-25.544v30h25.544v40.07h-25.544v30h25.544v40.071h-25.544v30h25.544v40.07h-25.544v30h25.544v85.736c0 25.18 20.485 45.665 45.665 45.665h340.879v-511.754zm311.544 481.756h-310.879c-8.638 0-15.665-7.027-15.665-15.665s7.027-15.665 15.665-15.665h310.879zm-310.879-61.33c-5.501 0-10.777.978-15.665 2.769v-42.84h25.544v-30h-25.544v-40.07h25.544v-30h-25.544v-40.071h25.544v-30h-25.544v-40.07h25.544v-30h-25.544v-40.071h25.544v-30h-25.544v-25.073c0-8.271 6.729-15 15-15h311.544v390.426z"/><path d="m320.719 199.069c5.421-9.074 8.546-19.671 8.546-30.987 0-33.423-27.191-60.614-60.615-60.614-33.423 0-60.615 27.191-60.615 60.614 0 11.316 3.125 21.913 8.546 30.987-16.904 2.465-29.928 17.052-29.928 34.628v109.178h163.994v-109.178c0-17.576-13.025-32.162-29.928-34.628zm-52.069-61.601c16.881 0 30.615 13.733 30.615 30.614s-13.734 30.615-30.615 30.615-30.615-13.734-30.615-30.615 13.734-30.614 30.615-30.614zm51.997 175.407h-103.994v-79.178c0-2.757 2.243-5 5-5h93.994c2.757 0 5 2.243 5 5z"/></g></svg>