<svg id="Capa_1" enable-background="new 0 0 511.978 511.978" height="512" viewBox="0 0 511.978 511.978" width="512" xmlns="http://www.w3.org/2000/svg"><g><path d="m261.543 200.49-10.121 64.667c-1.507 9.627 2.452 19.168 10.33 24.9 7.88 5.732 18.175 6.563 26.871 2.167l58.605-29.628 58.605 29.628c3.706 1.873 7.702 2.798 11.679 2.797 5.353 0 10.67-1.675 15.19-4.964 7.879-5.731 11.838-15.272 10.332-24.9l-10.122-64.668 46.263-46.354c6.891-6.904 9.302-16.958 6.29-26.237-3.011-9.279-10.864-16.002-20.497-17.546l-64.793-10.384-29.953-58.325c-4.447-8.66-13.258-14.04-22.994-14.04s-18.547 5.38-22.994 14.04l-29.953 58.325-64.794 10.384c-9.632 1.544-17.487 8.268-20.498 17.547-3.01 9.279-.6 19.332 6.292 26.237zm-33.529-66.419c.332-1.023 1.449-3.46 4.639-3.971l69.793-11.185c3.144-.504 5.859-2.474 7.313-5.306l32.267-62.83c1.473-2.867 4.129-3.177 5.203-3.177s3.73.31 5.203 3.177l32.267 62.83c1.454 2.832 4.17 4.802 7.313 5.306l69.793 11.185c3.189.511 4.306 2.947 4.638 3.971s.858 3.651-1.423 5.937l-49.85 49.947c-2.254 2.259-3.295 5.458-2.802 8.611l10.907 69.684c.499 3.188-1.469 5.003-2.338 5.636-.87.632-3.202 1.946-6.08.489l-63.117-31.908c-2.838-1.434-6.186-1.434-9.023 0l-63.117 31.907c-2.878 1.456-5.21.142-6.081-.49-.869-.632-2.836-2.446-2.337-5.635l10.906-69.685c.493-3.152-.548-6.352-2.802-8.61l-49.849-49.947c-2.281-2.286-1.755-4.913-1.423-5.936z"/><path d="m500.407 333.964c-7.664-7.952-17.956-12.432-28.982-12.613-10.982-.187-21.458 3.954-29.448 11.716l-58.306 57.739c-8.835-28.11-35.065-48.55-65.965-48.55h-51.059c-10.566-17.87-29.896-29.104-50.909-29.104-28.279 0-52.076 19.899-57.831 46.779h-13.724v-5.249c0-5.522-4.477-10-10-10h-124.183c-5.523 0-10 4.478-10 10v99.064c0 5.522 4.477 10 10 10h124.184c5.523 0 10-4.478 10-10v-5.248h19.174c10.822 21.718 33.232 35.876 57.802 35.876h168.192c10.769 0 20.961-4.138 28.755-11.707l81.339-80.229c16.326-15.855 16.757-42.087.961-58.474zm-376.223 109.783h-104.184v-79.064h104.184zm361.272-65.6-81.339 80.229c-3.984 3.869-9.229 6-14.766 6h-168.191c-18.607 0-35.424-11.781-41.849-29.316-1.443-3.939-5.193-6.56-9.39-6.56h-25.738v-48.567h22.464c5.325 0 9.716-4.173 9.987-9.491 1.066-20.909 18.242-37.288 39.104-37.288 15.377 0 29.398 9.105 35.72 23.197 1.613 3.594 5.185 5.906 9.124 5.906h57.124c23.693 0 43.523 16.93 48.135 39.379h-100.947c-5.522 0-10 4.478-10 10s4.478 10 10 10h111.955c2.468 0 4.726-.895 6.47-2.376.014-.012.029-.024.043-.036.036-.031.072-.063.108-.094.029-.026.059-.052.088-.078.02-.018.039-.036.059-.054.044-.04.087-.08.13-.121.003-.002.005-.005.007-.007.047-.044.093-.089.139-.134l72.087-71.388c4.078-3.961 9.433-6.086 15.115-5.998 5.67.094 10.966 2.4 14.912 6.495v.001c8.172 8.476 7.95 22.045-.551 30.301z"/></g></svg>